HIERARCHY
ROOT newVegas:Hips
{
	OFFSET 0.000000 96.479958 0.000000
	CHANNELS 6 Xposition Yposition Zposition Xrotation Yrotation Zrotation
	JOINT newVegas:Pelvis
	{
		OFFSET 0.000000 0.000000 0.000000
		CHANNELS 3 Xrotation Yrotation Zrotation
		JOINT newVegas:LeftUpLeg
		{
			OFFSET 18.735201 -5.666702 -4.541200
			CHANNELS 3 Xrotation Yrotation Zrotation
			JOINT newVegas:LeftLeg
			{
				OFFSET -0.021200 -31.938179 0.493100
				CHANNELS 3 Xrotation Yrotation Zrotation
				JOINT newVegas:LeftFoot
				{
					OFFSET 0.021200 -31.938179 -4.336299
					CHANNELS 3 Xrotation Yrotation Zrotation
					JOINT newVegas:LeftToeBase
					{
						OFFSET 0.943001 -26.722000 15.023500
						CHANNELS 3 Xrotation Yrotation Zrotation
						End Site
						{
							OFFSET 0.000000 30.670183 0.000000
						}
					}
				}
				JOINT newVegas:Left_PantLeg
				{
					OFFSET 0.663870 -9.044666 -1.108900
					CHANNELS 3 Xrotation Yrotation Zrotation
					End Site
					{
						OFFSET 1.415995 20.635357 0.000000
					}
				}
			}
		}
		JOINT newVegas:RightUpLeg
		{
			OFFSET -18.735201 -5.666702 -4.541200
			CHANNELS 3 Xrotation Yrotation Zrotation
			JOINT newVegas:RightLeg
			{
				OFFSET 0.018946 -31.938133 0.493100
				CHANNELS 3 Xrotation Yrotation Zrotation
				JOINT newVegas:RightFoot
				{
					OFFSET -0.018946 -31.938126 -4.336299
					CHANNELS 3 Xrotation Yrotation Zrotation
					JOINT newVegas:RightToeBase
					{
						OFFSET -0.943001 -26.722004 15.023500
						CHANNELS 3 Xrotation Yrotation Zrotation
						End Site
						{
							OFFSET 0.000000 30.670187 0.000000
						}
					}
				}
				JOINT newVegas:Right_PantLeg
				{
					OFFSET -0.661674 -9.044716 -1.108900
					CHANNELS 3 Xrotation Yrotation Zrotation
					End Site
					{
						OFFSET -1.415958 20.635269 0.000000
					}
				}
			}
		}
	}
	JOINT newVegas:Spine
	{
		OFFSET 0.000000 10.199997 -0.299500
		CHANNELS 3 Xrotation Yrotation Zrotation
		JOINT newVegas:Spine1
		{
			OFFSET 0.000000 11.900002 -1.516600
			CHANNELS 3 Xrotation Yrotation Zrotation
			JOINT newVegas:Spine2
			{
				OFFSET 0.000000 13.600006 -2.842500
				CHANNELS 3 Xrotation Yrotation Zrotation
				JOINT newVegas:Neck
				{
					OFFSET 0.000000 9.624100 -2.890100
					CHANNELS 3 Xrotation Yrotation Zrotation
					JOINT newVegas:Head
					{
						OFFSET 0.000000 14.068802 -1.351900
						CHANNELS 3 Xrotation Yrotation Zrotation
						JOINT newVegas:Hair_Back
						{
							OFFSET 0.000000 3.231903 -17.524799
							CHANNELS 3 Xrotation Yrotation Zrotation
							End Site
							{
								OFFSET 0.000000 19.849884 0.000000
							}
						}
						JOINT newVegas:Hair_Front
						{
							OFFSET 0.000000 31.260406 4.573800
							CHANNELS 3 Xrotation Yrotation Zrotation
							JOINT newVegas:Hair_Front1
							{
								OFFSET 0.000000 2.284103 11.993300
								CHANNELS 3 Xrotation Yrotation Zrotation
								JOINT newVegas:Hair_Front2
								{
									OFFSET 0.000000 2.284103 11.993300
									CHANNELS 3 Xrotation Yrotation Zrotation
									End Site
									{
										OFFSET 0.000000 12.208862 0.000000
									}
								}
							}
						}
						JOINT newVegas:Jowel
						{
							OFFSET 0.000000 -7.458206 6.864100
							CHANNELS 3 Xrotation Yrotation Zrotation
							End Site
							{
								OFFSET 0.000000 19.849884 0.000000
							}
						}
					}
				}
				JOINT newVegas:LeftShoulder
				{
					OFFSET 15.263000 10.923401 -0.547700
					CHANNELS 3 Xrotation Yrotation Zrotation
					JOINT newVegas:LeftArm
					{
						OFFSET 25.438599 -2.830597 -13.032500
						CHANNELS 3 Xrotation Yrotation Zrotation
						JOINT newVegas:LeftForeArm
						{
							OFFSET 29.960503 0.000000 0.000000
							CHANNELS 3 Xrotation Yrotation Zrotation
							JOINT newVegas:LeftHand
							{
								OFFSET 27.849251 0.000000 0.000000
								CHANNELS 3 Xrotation Yrotation Zrotation
								JOINT newVegas:LeftHandThumb1
								{
									OFFSET 4.487587 -3.305161 6.305391
									CHANNELS 3 Xrotation Yrotation Zrotation
									JOINT newVegas:LeftHandThumb2
									{
										OFFSET 5.480453 -3.164139 3.164143
										CHANNELS 3 Xrotation Yrotation Zrotation
										JOINT newVegas:LeftHandThumb3
										{
											OFFSET 5.159721 -2.978973 2.978967
											CHANNELS 3 Xrotation Yrotation Zrotation
											End Site
											{
												OFFSET 2.494507 5.926697 1.738678
											}
										}
									}
								}
								JOINT newVegas:LeftHandIndex1
								{
									OFFSET 18.578728 -0.527832 5.208049
									CHANNELS 3 Xrotation Yrotation Zrotation
									JOINT newVegas:LeftHandIndex2
									{
										OFFSET 3.192009 0.000000 0.000000
										CHANNELS 3 Xrotation Yrotation Zrotation
										JOINT newVegas:LeftHandIndex3
										{
											OFFSET 3.835129 0.000000 0.000000
											CHANNELS 3 Xrotation Yrotation Zrotation
											End Site
											{
												OFFSET -0.034599 3.816971 0.371180
											}
										}
									}
								}
								JOINT newVegas:LeftHandMiddle1
								{
									OFFSET 18.476105 0.000000 0.000000
									CHANNELS 3 Xrotation Yrotation Zrotation
									JOINT newVegas:LeftHandMiddle2
									{
										OFFSET 3.324875 0.000000 0.000000
										CHANNELS 3 Xrotation Yrotation Zrotation
										JOINT newVegas:LeftHandMiddle3
										{
											OFFSET 4.596550 0.000000 0.000000
											CHANNELS 3 Xrotation Yrotation Zrotation
											End Site
											{
												OFFSET 0.057701 4.578827 0.399218
											}
										}
									}
								}
								JOINT newVegas:LeftHandRing1
								{
									OFFSET 17.732719 0.121887 -4.201567
									CHANNELS 3 Xrotation Yrotation Zrotation
									JOINT newVegas:LeftHandRing2
									{
										OFFSET 2.733170 0.000000 0.000000
										CHANNELS 3 Xrotation Yrotation Zrotation
										JOINT newVegas:LeftHandRing3
										{
											OFFSET 3.178268 0.000000 0.000000
											CHANNELS 3 Xrotation Yrotation Zrotation
											End Site
											{
												OFFSET 0.119102 3.170624 0.185394
											}
										}
									}
								}
								JOINT newVegas:LeftHandPinky1
								{
									OFFSET 15.989624 -0.606689 -7.535461
									CHANNELS 3 Xrotation Yrotation Zrotation
									JOINT newVegas:LeftHandPinky2
									{
										OFFSET 2.538986 0.000000 0.000000
										CHANNELS 3 Xrotation Yrotation Zrotation
										JOINT newVegas:LeftHandPinky3
										{
											OFFSET 2.593102 0.000000 0.000000
											CHANNELS 3 Xrotation Yrotation Zrotation
											End Site
											{
												OFFSET -0.150902 2.584198 0.152708
											}
										}
									}
								}
							}
							JOINT newVegas:Left_Sleeve
							{
								OFFSET 0.267448 -0.649796 0.577675
								CHANNELS 3 Xrotation Yrotation Zrotation
								End Site
								{
									OFFSET 0.000000 15.991241 0.000000
								}
							}
							JOINT newVegas:Left_CapeC
							{
								OFFSET 15.715958 -8.608795 -6.935905
								CHANNELS 3 Xrotation Yrotation Zrotation
								JOINT newVegas:Left_CapeC1
								{
									OFFSET 0.000000 -8.688499 0.000000
									CHANNELS 3 Xrotation Yrotation Zrotation
									End Site
									{
										OFFSET 0.000000 8.688499 0.000000
									}
								}
							}
						}
						JOINT newVegas:Left_CapeB
						{
							OFFSET 26.118385 -8.608795 -7.079235
							CHANNELS 3 Xrotation Yrotation Zrotation
							JOINT newVegas:Left_CapeB1
							{
								OFFSET 0.000000 -8.688499 0.000000
								CHANNELS 3 Xrotation Yrotation Zrotation
								End Site
								{
									OFFSET 0.000000 8.688499 0.000000
								}
							}
						}
						JOINT newVegas:Left_CapeA
						{
							OFFSET 5.115639 -8.608795 -10.395809
							CHANNELS 3 Xrotation Yrotation Zrotation
							JOINT newVegas:Left_CapeA1
							{
								OFFSET 0.000000 -8.688499 0.000000
								CHANNELS 3 Xrotation Yrotation Zrotation
								End Site
								{
									OFFSET 0.000000 8.688499 0.000000
								}
							}
						}
					}
				}
				JOINT newVegas:RightShoulder
				{
					OFFSET -15.263000 10.923401 -0.547700
					CHANNELS 3 Xrotation Yrotation Zrotation
					JOINT newVegas:RightArm
					{
						OFFSET -25.438599 -2.830597 -13.032500
						CHANNELS 3 Xrotation Yrotation Zrotation
						JOINT newVegas:RightForeArm
						{
							OFFSET -29.960503 0.000000 0.000000
							CHANNELS 3 Xrotation Yrotation Zrotation
							JOINT newVegas:RightHand
							{
								OFFSET -27.849251 0.000000 0.000000
								CHANNELS 3 Xrotation Yrotation Zrotation
								JOINT newVegas:RightHandThumb1
								{
									OFFSET -4.487587 -3.305161 6.305391
									CHANNELS 3 Xrotation Yrotation Zrotation
									JOINT newVegas:RightHandThumb2
									{
										OFFSET -5.480453 -3.164139 3.164143
										CHANNELS 3 Xrotation Yrotation Zrotation
										JOINT newVegas:RightHandThumb3
										{
											OFFSET -5.159721 -2.978973 2.978967
											CHANNELS 3 Xrotation Yrotation Zrotation
											End Site
											{
												OFFSET -2.494507 5.926697 1.738678
											}
										}
									}
								}
								JOINT newVegas:RightHandIndex1
								{
									OFFSET -18.578728 -0.527832 5.208049
									CHANNELS 3 Xrotation Yrotation Zrotation
									JOINT newVegas:RightHandIndex2
									{
										OFFSET -3.192009 0.000000 0.000000
										CHANNELS 3 Xrotation Yrotation Zrotation
										JOINT newVegas:RightHandIndex3
										{
											OFFSET -3.835129 0.000000 0.000000
											CHANNELS 3 Xrotation Yrotation Zrotation
											End Site
											{
												OFFSET 0.034599 3.816971 0.371180
											}
										}
									}
								}
								JOINT newVegas:RightHandMiddle1
								{
									OFFSET -18.476105 0.000000 0.000000
									CHANNELS 3 Xrotation Yrotation Zrotation
									JOINT newVegas:RightHandMiddle2
									{
										OFFSET -3.324875 0.000000 0.000000
										CHANNELS 3 Xrotation Yrotation Zrotation
										JOINT newVegas:RightHandMiddle3
										{
											OFFSET -4.596550 0.000000 0.000000
											CHANNELS 3 Xrotation Yrotation Zrotation
											End Site
											{
												OFFSET -0.057701 4.578827 0.399218
											}
										}
									}
								}
								JOINT newVegas:RightHandRing1
								{
									OFFSET -17.732719 0.121887 -4.201567
									CHANNELS 3 Xrotation Yrotation Zrotation
									JOINT newVegas:RightHandRing2
									{
										OFFSET -2.733170 0.000000 0.000000
										CHANNELS 3 Xrotation Yrotation Zrotation
										JOINT newVegas:RightHandRing3
										{
											OFFSET -3.178268 0.000000 0.000000
											CHANNELS 3 Xrotation Yrotation Zrotation
											End Site
											{
												OFFSET -0.119102 3.170624 0.185394
											}
										}
									}
								}
								JOINT newVegas:RightHandPinky1
								{
									OFFSET -15.989624 -0.606689 -7.535461
									CHANNELS 3 Xrotation Yrotation Zrotation
									JOINT newVegas:RightHandPinky2
									{
										OFFSET -2.538986 0.000000 0.000000
										CHANNELS 3 Xrotation Yrotation Zrotation
										JOINT newVegas:RightHandPinky3
										{
											OFFSET -2.593102 0.000000 0.000000
											CHANNELS 3 Xrotation Yrotation Zrotation
											End Site
											{
												OFFSET 0.150902 2.584198 0.152708
											}
										}
									}
								}
							}
							JOINT newVegas:Right_CapeC
							{
								OFFSET -15.715958 -8.608795 -6.935905
								CHANNELS 3 Xrotation Yrotation Zrotation
								JOINT newVegas:Right_CapeC1
								{
									OFFSET 0.000000 -8.688499 0.000000
									CHANNELS 3 Xrotation Yrotation Zrotation
									End Site
									{
										OFFSET 0.000000 8.688499 0.000000
									}
								}
							}
							JOINT newVegas:Right_Sleeve
							{
								OFFSET -0.267448 -0.649994 0.577675
								CHANNELS 3 Xrotation Yrotation Zrotation
								End Site
								{
									OFFSET 0.000000 15.991302 0.000000
								}
							}
						}
						JOINT newVegas:Right_CapeA
						{
							OFFSET -5.115540 -8.608795 -10.395824
							CHANNELS 3 Xrotation Yrotation Zrotation
							JOINT newVegas:Right_CapeA1
							{
								OFFSET 0.000000 -8.688499 0.000000
								CHANNELS 3 Xrotation Yrotation Zrotation
								End Site
								{
									OFFSET 0.000000 8.688499 0.000000
								}
							}
						}
						JOINT newVegas:Right_CapeB
						{
							OFFSET -26.118187 -8.608795 -7.079266
							CHANNELS 3 Xrotation Yrotation Zrotation
							JOINT newVegas:Right_CapeB1
							{
								OFFSET 0.000000 -8.688499 0.000000
								CHANNELS 3 Xrotation Yrotation Zrotation
								End Site
								{
									OFFSET 0.000000 8.688499 0.000000
								}
							}
						}
					}
				}
				JOINT newVegas:Left_Collar
				{
					OFFSET 18.625099 8.655502 8.828100
					CHANNELS 3 Xrotation Yrotation Zrotation
					JOINT newVegas:Left_Collar1
					{
						OFFSET 14.783401 10.540405 -1.259500
						CHANNELS 3 Xrotation Yrotation Zrotation
						End Site
						{
							OFFSET 0.000000 18.199875 0.000000
						}
					}
				}
				JOINT newVegas:Collar_Back
				{
					OFFSET 0.000000 15.630707 -20.132601
					CHANNELS 3 Xrotation Yrotation Zrotation
					End Site
					{
						OFFSET 0.000000 22.523010 0.000000
					}
				}
				JOINT newVegas:Left_Peck
				{
					OFFSET 17.239599 -5.132599 25.482599
					CHANNELS 3 Xrotation Yrotation Zrotation
					End Site
					{
						OFFSET 0.000000 22.523010 0.000000
					}
				}
				JOINT newVegas:Right_Peck
				{
					OFFSET -17.239599 -5.132202 25.482599
					CHANNELS 3 Xrotation Yrotation Zrotation
					End Site
					{
						OFFSET 0.000000 22.523010 0.000000
					}
				}
				JOINT newVegas:Right_Collar
				{
					OFFSET -18.625099 8.655792 8.828100
					CHANNELS 3 Xrotation Yrotation Zrotation
					JOINT newVegas:Right_Collar1
					{
						OFFSET -14.783401 10.539993 -1.259500
						CHANNELS 3 Xrotation Yrotation Zrotation
						End Site
						{
							OFFSET 0.000000 18.199631 0.000000
						}
					}
				}
			}
		}
		JOINT newVegas:Belly
		{
			OFFSET 0.000000 -6.540398 9.014299
			CHANNELS 3 Xrotation Yrotation Zrotation
			End Site
			{
				OFFSET 0.000000 11.566666 0.000000
			}
		}
	}
	JOINT newVegas:ElvisFacialAnim_Joint
	{
		OFFSET 1.000000 -95.330101 -8.825800
		CHANNELS 3 Xrotation Yrotation Zrotation
		End Site
		{
			OFFSET 0.000000 35.315800 0.000000
		}
	}
}
MOTION
Frames: 4
Frame Time: 0.033333
-14.106958 81.569641 -6.142027 12.523606 -12.557777 175.837182 0.000001 -0.000001 0.000000 -100.433274 -37.063584 16.306761 124.693231 -3.790942 0.902091 8.481000 -4.014547 -14.701496 0.000000 -0.000002 0.000001 -0.000000 0.000000 0.000000 -67.167800 17.972004 -30.899229 74.347777 0.417643 2.957233 15.366701 -8.494674 9.625364 -0.000001 0.000000 -0.000001 -0.000000 0.000000 0.000003 36.402036 -9.026069 8.733390 -0.206148 -3.681268 2.752875 -0.129580 -3.469239 3.102627 -6.560537 0.899745 0.138840 -6.560530 0.899743 0.138839 0.000001 0.000001 0.000000 -6.560550 0.899743 0.138841 -6.560493 0.899741 0.138840 0.000000 0.000000 -0.000000 0.000001 0.000001 0.000000 0.356546 -20.237084 -11.464321 -76.041261 14.837116 -31.262449 -0.000189 -111.675512 -0.000222 39.012149 3.019621 0.989000 -11.470734 -4.767271 2.951400 13.901563 35.341526 -4.438581 0.000001 0.000001 -0.000003 0.574646 -8.129910 2.315535 1.087587 3.401608 -35.452483 0.000001 0.000001 -0.000002 -0.134812 0.122095 -4.730201 1.364630 3.759766 -39.886174 -0.000001 0.000001 0.000001 0.677365 9.878404 -4.467127 1.993082 4.402299 -48.699443 0.000003 -0.000004 -0.000001 6.923811 17.256980 -26.475488 0.674395 2.730813 -27.739352 -0.000001 -0.000005 -0.000001 -0.000002 -0.000001 0.000001 -0.000002 -0.000001 0.000001 -0.000003 -0.000000 0.000001 0.000000 0.000000 0.000002 0.000000 -0.000001 0.000002 0.000000 0.000000 0.000002 -0.000001 -0.000002 0.000001 0.529032 12.406845 14.010953 -63.022886 19.631885 46.193201 0.000073 95.625927 -0.000148 16.957278 12.212717 -15.737495 -17.027014 8.934342 -3.193846 18.098941 -38.435414 2.275759 0.000000 -0.000002 0.000003 1.154469 11.458207 -4.160566 0.657056 -2.386947 30.777123 0.000000 -0.000002 0.000002 0.097995 -3.688215 2.118654 2.517154 -4.137324 62.618901 0.000000 -0.000002 0.000001 1.871354 -8.450769 18.434068 3.353500 -4.471373 73.726974 0.000001 0.000001 -0.000001 3.524353 -12.239230 20.605004 1.576481 -3.494333 48.555019 -0.000000 -0.000000 -0.000000 -0.000002 0.000001 0.000002 -0.000001 -0.000001 0.000002 -0.000002 0.000001 0.000003 0.000001 0.000000 0.000002 -0.000000 0.000000 0.000001 0.000001 0.000000 0.000002 -0.000000 0.000000 0.000002 0.000001 0.000001 -0.000000 0.000001 0.000001 -0.000000 0.000001 0.000001 -0.000000 0.000001 0.000001 -0.000000 0.000001 0.000001 -0.000000 0.000001 0.000001 -0.000000 0.000001 0.000001 -0.000000 -0.000001 0.000000 0.000000 0.000001 -0.000001 0.000000 
-17.075329 81.176720 -5.253432 12.875912 15.559849 169.515542 -0.000001 -0.000000 0.000000 -101.781696 -34.676495 16.254221 119.429614 -2.799445 1.713469 7.380134 -3.798073 -14.550719 0.000000 -0.000001 0.000000 0.000000 -0.000001 0.000002 -71.691701 18.622210 -32.491749 76.987071 0.671595 3.084896 15.654488 -8.880292 10.380311 -0.000000 0.000003 0.000000 -0.000001 -0.000002 0.000001 36.572466 -8.976500 8.757977 -0.137929 -3.685925 2.742192 -0.062731 -3.477187 3.087519 -6.560536 0.899744 0.138839 -6.560529 0.899744 0.138840 0.000000 -0.000002 0.000000 -6.560552 0.899741 0.138841 -6.560493 0.899745 0.138840 0.000000 0.000005 0.000000 0.000000 -0.000002 0.000000 0.356545 -20.237080 -11.464319 -76.235812 14.605540 -31.173608 -0.000247 -111.575074 -0.000244 39.012149 3.019623 0.988999 -11.470731 -4.767269 2.951406 13.901560 35.341520 -4.438585 0.000001 0.000001 -0.000003 0.574644 -8.129912 2.315533 1.087589 3.401606 -35.452483 0.000001 0.000000 -0.000002 -0.134812 0.122093 -4.730195 1.364635 3.759765 -39.886174 -0.000001 0.000003 0.000001 0.677364 9.878402 -4.467125 1.993085 4.402299 -48.699443 0.000001 0.000006 0.000004 6.923805 17.256982 -26.475492 0.674397 2.730813 -27.739352 -0.000000 0.000000 -0.000000 -0.000000 0.000002 -0.000001 -0.000000 0.000002 -0.000001 -0.000000 0.000002 -0.000000 -0.000001 -0.000003 0.000001 -0.000001 -0.000003 0.000000 -0.000001 -0.000003 0.000001 -0.000001 -0.000004 0.000001 0.534931 12.406490 13.988504 -63.253658 19.606155 46.108701 -0.001416 95.521138 0.001420 16.957280 12.212718 -15.737490 -17.027020 8.934343 -3.193849 18.098941 -38.435407 2.275759 0.000002 0.000000 -0.000000 1.154471 11.458207 -4.160564 0.657058 -2.386947 30.777123 -0.000001 -0.000000 0.000003 0.097993 -3.688217 2.118658 2.517156 -4.137327 62.618901 0.000001 0.000001 0.000000 1.871353 -8.450768 18.434068 3.353504 -4.471373 73.726968 -0.000001 0.000001 -0.000004 3.524349 -12.239238 20.605012 1.576484 -3.494328 48.555026 0.000001 0.000002 0.000001 -0.000002 0.000001 -0.000001 -0.000000 -0.000002 0.000005 -0.000002 0.000001 -0.000000 0.000001 0.000003 0.000001 0.000000 0.000003 -0.000000 0.000001 0.000003 0.000001 0.000000 0.000003 0.000002 0.000001 -0.000001 -0.000001 0.000001 -0.000001 -0.000001 0.000001 -0.000001 -0.000001 0.000001 -0.000001 -0.000001 0.000001 -0.000001 -0.000001 0.000001 -0.000001 -0.000001 0.000001 -0.000001 -0.000001 0.000001 -0.000002 -0.000000 -0.000001 -0.000000 0.000000 
-19.163292 80.802582 -3.125446 17.475416 43.386325 160.788377 0.000000 0.000000 -0.000001 -102.113090 -32.551418 16.764826 113.688738 -2.009095 2.532889 6.184440 -3.249603 -14.516664 -0.000000 0.000001 -0.000000 -0.000000 0.000000 0.000001 -76.111291 19.659596 -33.845227 79.697837 0.935279 3.120817 16.281486 -9.181738 11.069647 -0.000001 -0.000000 0.000000 0.000002 0.000002 -0.000002 36.770310 -8.930753 8.767568 -0.057626 -3.690157 2.728190 0.015937 -3.485241 3.068302 -6.560536 0.899743 0.138839 -6.560529 0.899741 0.138840 -0.000000 -0.000001 0.000000 -6.560551 0.899745 0.138841 -6.560494 0.899742 0.138840 0.000000 0.000002 0.000000 -0.000000 -0.000001 0.000000 0.356547 -20.237079 -11.464321 -76.772057 13.963838 -30.933343 -0.000075 -111.297263 -0.000085 39.012149 3.019621 0.988999 -11.470733 -4.767264 2.951399 13.901565 35.341526 -4.438583 0.000002 -0.000002 -0.000005 0.574642 -8.129910 2.315539 1.087588 3.401607 -35.452479 0.000002 -0.000001 -0.000003 -0.134817 0.122097 -4.730199 1.364632 3.759764 -39.886177 -0.000002 -0.000001 0.000000 0.677362 9.878406 -4.467126 1.993081 4.402297 -48.699450 -0.000000 -0.000001 -0.000001 6.923808 17.256985 -26.475488 0.674399 2.730818 -27.739347 -0.000000 -0.000003 -0.000003 0.000001 0.000001 0.000001 0.000001 0.000001 0.000001 0.000000 0.000001 0.000001 0.000001 0.000000 -0.000000 0.000001 -0.000001 0.000002 0.000001 0.000000 -0.000000 0.000001 -0.000001 0.000001 0.551038 12.405536 13.926411 -63.895511 19.536831 45.877766 -0.000747 95.231326 0.000740 16.957283 12.212721 -15.737499 -17.027018 8.934341 -3.193848 18.098949 -38.435414 2.275748 0.000006 0.000000 -0.000002 1.154473 11.458204 -4.160566 0.657059 -2.386948 30.777119 0.000000 0.000000 -0.000000 0.097996 -3.688217 2.118654 2.517157 -4.137327 62.618908 0.000001 -0.000001 0.000000 1.871355 -8.450767 18.434068 3.353501 -4.471372 73.726974 -0.000002 -0.000001 -0.000004 3.524352 -12.239235 20.605006 1.576480 -3.494331 48.555026 -0.000002 0.000003 0.000001 0.000003 0.000003 -0.000001 0.000003 0.000002 -0.000002 0.000003 0.000002 -0.000001 0.000000 -0.000002 -0.000001 0.000000 -0.000001 -0.000000 0.000000 -0.000002 -0.000001 0.000000 -0.000001 0.000000 0.000001 0.000001 -0.000001 0.000001 0.000001 -0.000001 0.000001 0.000001 -0.000001 0.000001 0.000001 -0.000001 0.000001 0.000001 -0.000001 0.000001 0.000001 -0.000001 0.000001 0.000001 -0.000001 0.000000 -0.000001 0.000001 0.000000 0.000000 -0.000001 
-19.959986 80.461029 -0.354895 38.808281 69.231781 136.027643 0.000001 -0.000001 0.000000 -101.793519 -30.731576 17.575356 107.938388 -1.409521 3.310426 5.064443 -2.503217 -14.564646 0.000000 -0.000001 -0.000000 -0.000000 0.000003 -0.000000 -80.214220 20.956021 -34.937046 82.327842 1.198251 3.092395 17.137706 -9.395703 11.675388 -0.000001 -0.000000 0.000000 0.000001 -0.000003 -0.000000 36.989914 -8.891748 8.766639 0.032262 -3.694034 2.711454 0.103986 -3.493297 3.045737 -6.560537 0.899745 0.138840 -6.560531 0.899742 0.138840 0.000000 -0.000000 0.000000 -6.560552 0.899743 0.138840 -6.560494 0.899742 0.138840 -0.000000 0.000000 -0.000000 0.000000 -0.000000 -0.000000 0.356547 -20.237080 -11.464317 -77.577630 12.990880 -30.585444 -0.000215 -110.877241 -0.000216 39.012152 3.019622 0.988997 -11.470733 -4.767266 2.951395 13.901568 35.341526 -4.438585 -0.000002 0.000001 -0.000003 0.574642 -8.129910 2.315534 1.087587 3.401608 -35.452483 0.000001 0.000001 -0.000001 -0.134815 0.122095 -4.730200 1.364631 3.759764 -39.886170 -0.000000 0.000001 -0.000001 0.677361 9.878405 -4.467132 1.993085 4.402296 -48.699447 -0.000003 -0.000001 0.000001 6.923808 17.256985 -26.475488 0.674399 2.730816 -27.739350 -0.000000 -0.000003 0.000001 0.000000 0.000000 -0.000000 0.000000 0.000000 -0.000000 -0.000001 0.000001 0.000000 -0.000003 -0.000003 0.000003 -0.000003 -0.000003 0.000002 -0.000003 -0.000003 0.000003 -0.000004 -0.000004 0.000005 0.575737 12.403734 13.832512 -64.875302 19.437298 45.536472 -0.000890 94.793170 0.000930 16.957282 12.212719 -15.737497 -17.027028 8.934345 -3.193847 18.098946 -38.435411 2.275754 0.000002 0.000001 -0.000001 1.154468 11.458205 -4.160564 0.657055 -2.386949 30.777119 0.000000 0.000003 -0.000001 0.097992 -3.688213 2.118653 2.517156 -4.137325 62.618908 -0.000002 -0.000001 -0.000000 1.871349 -8.450764 18.434068 3.353501 -4.471373 73.726981 0.000002 0.000004 -0.000000 3.524350 -12.239231 20.605007 1.576481 -3.494324 48.555019 -0.000002 0.000003 -0.000001 0.000001 0.000004 -0.000003 0.000001 0.000000 -0.000001 0.000001 0.000004 -0.000001 0.000001 0.000003 -0.000003 0.000001 0.000003 -0.000002 0.000001 0.000003 -0.000003 0.000001 0.000003 -0.000002 0.000000 0.000000 -0.000000 0.000000 0.000000 -0.000000 0.000000 0.000000 -0.000000 0.000000 0.000000 -0.000000 0.000000 0.000000 -0.000000 0.000000 0.000000 -0.000000 0.000000 0.000000 -0.000000 0.000000 0.000000 -0.000000 0.000001 -0.000001 0.000000 
